<svg xmlns="http://www.w3.org/2000/svg" xmlns:xlink="http://www.w3.org/1999/xlink" viewBox="0 0 292.7 586.04"><defs><style>.cls-1{fill:url(#Polished_Brass);}.cls-2{fill:url(#linear-gradient);}.cls-3{fill:url(#linear-gradient-2);}.cls-4{fill:url(#linear-gradient-3);}.cls-5{fill:url(#linear-gradient-4);}.cls-6{fill:url(#Polished_Brass-2);}</style><linearGradient id="Polished_Brass" x1="23.91" y1="565" x2="268.8" y2="565" gradientUnits="userSpaceOnUse"><stop offset="0.01" stop-color="#efc981"/><stop offset="0.19" stop-color="#f2d78f"/><stop offset="0.41" stop-color="#f8f0e4"/><stop offset="0.73" stop-color="#c58511"/><stop offset="0.9" stop-color="#e5b76d"/><stop offset="0.95" stop-color="#eec687"/></linearGradient><linearGradient id="linear-gradient" x1="71.03" y1="231.91" x2="32.91" y2="229.47" gradientUnits="userSpaceOnUse"><stop offset="0" stop-color="#000034"/><stop offset="0.14" stop-color="#040138"/><stop offset="0.29" stop-color="#0e0345"/><stop offset="0.44" stop-color="#200659"/><stop offset="0.59" stop-color="#380b76"/><stop offset="0.74" stop-color="#58129b"/><stop offset="0.89" stop-color="#7e19c8"/><stop offset="1" stop-color="#a020f0"/></linearGradient><linearGradient id="linear-gradient-2" x1="62.91" y1="75.97" x2="291.91" y2="147.86" xlink:href="#linear-gradient"/><linearGradient id="linear-gradient-3" x1="34.01" y1="317.88" x2="337.23" y2="313.75" gradientUnits="userSpaceOnUse"><stop offset="0" stop-color="#000034"/><stop offset="0.11" stop-color="#07013c"/><stop offset="0.27" stop-color="#190551"/><stop offset="0.47" stop-color="#360b74"/><stop offset="0.7" stop-color="#6013a4"/><stop offset="0.95" stop-color="#941ee2"/><stop offset="1" stop-color="#a020f0"/></linearGradient><linearGradient id="linear-gradient-4" x1="42.28" y1="178.51" x2="234.53" y2="154.99" xlink:href="#linear-gradient-3"/><linearGradient id="Polished_Brass-2" x1="0" y1="154.89" x2="291.26" y2="154.89" xlink:href="#Polished_Brass"/></defs><g id="Layer_2" data-name="Layer 2"><g id="Layer_2-2" data-name="Layer 2"><polygon class="cls-1" points="268.8 586.04 23.91 586.04 34.85 543.96 257.02 543.96 268.8 586.04"/><path class="cls-2" d="M54,261.82a32.12,32.12,0,0,1-7.66-6.36c-10-11.36-10.25-28.82-4.6-42.86a73.09,73.09,0,0,1,7-13.12c2.56,20.36,4.14,40.86,5.2,61.35C53.93,261.16,54,261.49,54,261.82Z"/><path class="cls-3" d="M246.46,123.78c-6.52,30.72-22,59.13-43.1,82.41-.05-31.13.74-93.33,6.83-142.83l-29.36-5c-20.7,28.68-56,46.19-91.37,45.29-12.29-.31-26.29-4-31.53-15.1C53.26,78.72,57.52,66.82,64,58c10.93-14.83,27.77-24.62,45.56-29.4s36.54-4.86,54.87-3c15,1.52,30,4.36,43.74,10.63s26.09,16.19,33.29,29.43C251,83.12,250.58,104.36,246.46,123.78Z"/><path class="cls-4" d="M265,287.29C225.4,461.49,229.51,528,229.51,528H65.5c-7.57-79.1-27.77-156.53-38.71-185.14C16,314.66,3.38,266.51,3,265,9.4,283.38,25.8,297.5,44.23,304.17c19.77,7.15,41.59,6.68,62.29,3,75.54-13.54,140.13-70.28,170.09-140.94,8.39-19.78,14.4-42.5,14.65-64.55h0v0C294,125.51,296.09,143.38,265,287.29Z"/><path class="cls-5" d="M203.36,206.19a194.56,194.56,0,0,1-29.85,26.71,191.54,191.54,0,0,1-76.17,33.25,99.29,99.29,0,0,1-14.94,1.72l-.34-1.64-1.76,1.68c-9.46.1-18.76-1.53-26.34-6.09,0-.33,0-.66-.05-1-1.06-20.49-2.64-41-5.2-61.35,0,0,0,0,0-.09q-.44-3.49-.92-7c-.05-.47-.11-.94-.18-1.42-.13-.94-.26-1.87-.4-2.82-.1-.75-.21-1.52-.32-2.28-.4-2.65-.81-5.29-1.27-7.93-.16-.93-.32-1.85-.5-2.78-.2-1.14-.42-2.29-.66-3.43-.33-1.72-.7-3.43-1.08-5.14C40.64,154.5,36.1,143,31.17,131.63c-3.29-7.58-6.47-15.22-9.21-23-.16-.46-.57-2.37-1-4.06a37.21,37.21,0,0,0,2,3.8c6.28,10.59,17,18,28.4,22.56a86,86,0,0,0,11.25,3.59c16,4,33.12,3.51,49.37.2a148.43,148.43,0,0,0,98.24-71.34C204.1,112.86,203.31,175.06,203.36,206.19Z"/><path class="cls-6" d="M291.26,101.64h0c-.25,22-6.26,44.77-14.65,64.55-30,70.66-94.55,127.4-170.09,140.94-20.7,3.71-42.52,4.18-62.29-3C25.8,297.5,9.4,283.38,3,265v0c-.47-1.34-.88-2.7-1.24-4.08-4.08-15.74-.62-32.77,6.84-47.22S27.23,187,39.13,175.94a30.71,30.71,0,0,1,5.32-4.23c.23,1.14.45,2.29.66,3.43.18.93.34,1.85.5,2.78.46,2.64.87,5.28,1.27,7.93.11.76.22,1.53.32,2.28.14,1,.27,1.88.4,2.82.07.48.13,1,.19,1.42.31,2.35.62,4.69.91,7,0,0,0,.06,0,.09a73.09,73.09,0,0,0-7,13.12c-5.65,14-5.39,31.5,4.6,42.86A32.12,32.12,0,0,0,54,261.82c7.58,4.56,16.88,6.19,26.34,6.09.7,0,1.4,0,2.1,0a99.29,99.29,0,0,0,14.94-1.72,191.54,191.54,0,0,0,76.17-33.25,194.56,194.56,0,0,0,29.85-26.71c21.14-23.28,36.58-51.69,43.1-82.41,4.12-19.42,4.49-40.66-5-58.11-7.2-13.24-19.58-23.17-33.29-29.43s-28.75-9.11-43.74-10.63c-18.33-1.84-37.08-1.76-54.87,3S74.92,43.2,64,58c-6.47,8.79-10.73,20.69-6.06,30.57,5.24,11.1,19.24,14.79,31.53,15.1,35.35.9,70.67-16.61,91.37-45.29l29.36,5A148.43,148.43,0,0,1,112,134.7c-16.25,3.31-33.34,3.76-49.37-.2a86,86,0,0,1-11.25-3.59c-11.44-4.55-22.12-12-28.4-22.56a37.21,37.21,0,0,1-2-3.8c-.43-.92-.82-1.84-1.16-2.78-6.14-16.29-2.18-35.87,7.86-50.43,11.44-16.59,29.45-27.54,48-35.29A211.67,211.67,0,0,1,214.94,8.23c17,4.94,33.69,12.44,47.29,24C283.74,50.39,291.54,75.53,291.26,101.64Z"/></g></g></svg>